<svg width="24" height="24" version="1.1" viewBox="0 0 24 24" xmlns="http://www.w3.org/2000/svg">
 <path d="m4 0h16c2.22 0 4 1.78 4 4v16c0 2.22-1.78 4-4 4h-16c-2.22 0-4-1.78-4-4v-16c0-2.22 1.78-4 4-4z"/>
 <path d="m5.33 2h13.3c1.85 0 3.33 1.49 3.33 3.33v13.3c0 1.85-1.49 3.33-3.33 3.33h-13.3c-1.85 0-3.33-1.49-3.33-3.33v-13.3c0-1.85 1.49-3.33 3.33-3.33z" fill="#fff"/>
 <path d="m5.76 16.9h-1.76l3.36-5.18-3.07-4.68h1.76l2.2 3.37 2.19-3.37h1.76l-3.04 4.68 3.36 5.18h-1.77l-2.49-3.85z"/>
 <path d="m13.2 9.99h1.44v3.58q0 .43.12.819.12.376.36.658.253.282.614.456.36.161.84.161.4 0 .747-.148.36-.148.614-.43.267-.282.414-.671.16-.403.173-.899v-3.53h1.44v6.87h-1.44v-1.02q-.16.215-.4.43-.227.201-.534.362-.293.161-.64.255-.347.107-.72.107-.667 0-1.23-.242-.547-.255-.947-.698-.4-.456-.627-1.1t-.227-1.45z"/>
</svg>
